<svg width="200" height="50" viewBox="0 0 200 50" xmlns="http://www.w3.org/2000/svg">
  <!-- Wheat Grain Icon -->
  <g transform="translate(10, 5)">
    <path d="M15,5 C10,12 8,20 8,28 C8,35 12,40 15,40" stroke="#D4AF37" stroke-width="2.5" fill="none" />
    <path d="M15,5 C20,12 22,20 22,28 C22,35 18,40 15,40" stroke="#D4AF37" stroke-width="2.5" fill="none" />
    <path d="M12,12 C10,10 8,10 6,12 C4,14 4,18 8,20" fill="#D4AF37" />
    <path d="M18,12 C20,10 22,10 24,12 C26,14 26,18 22,20" fill="#D4AF37" />
    <path d="M10,22 C8,20 6,20 4,22 C2,24 2,28 8,30" fill="#D4AF37" />
    <path d="M20,22 C22,20 24,20 26,22 C28,24 28,28 22,30" fill="#D4AF37" />
  </g>
  <!-- Text -->
  <text x="50" y="32" font-family="Segoe UI, Roboto, Helvetica, Arial, sans-serif" font-size="22" font-weight="700" fill="#2D2D2D">
    Eastern <tspan fill="#D4AF37">Feeds</tspan>
  </text>
</svg>
